solid OBJECT
  facet normal 0 0 -1
    outer loop
      vertex 0 10 -2
      vertex 9.1666669845581055 0 -2
      vertex 0 0 -2
    endloop
  endfacet
  facet normal 0 -0 -1
    outer loop
      vertex 0 10 -2
      vertex 0 20 -2
      vertex 10.833333015441895 20 -2
    endloop
  endfacet
  facet normal 0 -0 -1
    outer loop
      vertex 20 10 -2
      vertex 9.1666669845581055 0 -2
      vertex 0 10 -2
    endloop
  endfacet
  facet normal -0 0 -1
    outer loop
      vertex 0 10 -2
      vertex 10.833333015441895 20 -2
      vertex 20 10 -2
    endloop
  endfacet
  facet normal 0 -0 -1
    outer loop
      vertex 20 10 -2
      vertex 10.833333015441895 20 -2
      vertex 21.666666030883789 20 -2
    endloop
  endfacet
  facet normal 0 -0 -1
    outer loop
      vertex 18.333333969116211 0 -2
      vertex 9.1666669845581055 0 -2
      vertex 20 10 -2
    endloop
  endfacet
  facet normal -0 1 -0
    outer loop
      vertex 0 20 2
      vertex 10.833333015441895 20 2
      vertex 10.833333015441895 20 -2
    endloop
  endfacet
  facet normal -0 1 -0
    outer loop
      vertex 0 20 2
      vertex 10.833333015441895 20 -2
      vertex 0 20 -2
    endloop
  endfacet
  facet normal 0 1 0
    outer loop
      vertex 21.666666030883789 20 -2
      vertex 10.833333015441895 20 -2
      vertex 10.833333015441895 20 2
    endloop
  endfacet
  facet normal 0 1 0
    outer loop
      vertex 21.666666030883789 20 -2
      vertex 10.833333015441895 20 2
      vertex 21.666666030883789 20 2
    endloop
  endfacet
  facet normal -1 0 0
    outer loop
      vertex 0 0 2
      vertex 0 10 2
      vertex 0 10 -2
    endloop
  endfacet
  facet normal -1 0 0
    outer loop
      vertex 0 0 2
      vertex 0 10 -2
      vertex 0 0 -2
    endloop
  endfacet
  facet normal -1 -0 -0
    outer loop
      vertex 0 20 -2
      vertex 0 10 -2
      vertex 0 10 2
    endloop
  endfacet
  facet normal -1 -0 -0
    outer loop
      vertex 0 20 -2
      vertex 0 10 2
      vertex 0 20 2
    endloop
  endfacet
  facet normal -0 -1 0
    outer loop
      vertex 18.333333969116211 0 2
      vertex 9.1666669845581055 0 2
      vertex 9.1666669845581055 0 -2
    endloop
  endfacet
  facet normal -0 -1 0
    outer loop
      vertex 18.333333969116211 0 2
      vertex 9.1666669845581055 0 -2
      vertex 18.333333969116211 0 -2
    endloop
  endfacet
  facet normal 0 -1 -0
    outer loop
      vertex 0 0 -2
      vertex 9.1666669845581055 0 -2
      vertex 9.1666669845581055 0 2
    endloop
  endfacet
  facet normal 0 -1 -0
    outer loop
      vertex 0 0 -2
      vertex 9.1666669845581055 0 2
      vertex 0 0 2
    endloop
  endfacet
  facet normal 0.98639393400185593 -0.16439892628707195 0
    outer loop
      vertex 21.666666030883789 20 2
      vertex 20 10 2
      vertex 20 10 -2
    endloop
  endfacet
  facet normal 0.98639393400185593 -0.16439892628707195 -0
    outer loop
      vertex 21.666666030883789 20 2
      vertex 20 10 -2
      vertex 21.666666030883789 20 -2
    endloop
  endfacet
  facet normal 0.98639393400185593 -0.16439892628707195 -0
    outer loop
      vertex 18.333333969116211 0 -2
      vertex 20 10 -2
      vertex 20 10 2
    endloop
  endfacet
  facet normal 0.98639393400185593 -0.16439892628707195 0
    outer loop
      vertex 18.333333969116211 0 -2
      vertex 20 10 2
      vertex 18.333333969116211 0 2
    endloop
  endfacet
  facet normal 0 0 1
    outer loop
      vertex 0 10 2
      vertex 0 0 2
      vertex 9.1666669845581055 0 2
    endloop
  endfacet
  facet normal -0 0 1
    outer loop
      vertex 0 10 2
      vertex 10.833333015441895 20 2
      vertex 0 20 2
    endloop
  endfacet
  facet normal 0 -0 1
    outer loop
      vertex 20 10 2
      vertex 0 10 2
      vertex 9.1666669845581055 0 2
    endloop
  endfacet
  facet normal -0 0 1
    outer loop
      vertex 0 10 2
      vertex 20 10 2
      vertex 10.833333015441895 20 2
    endloop
  endfacet
  facet normal 0 0 1
    outer loop
      vertex 20 10 2
      vertex 21.666666030883789 20 2
      vertex 10.833333015441895 20 2
    endloop
  endfacet
  facet normal 0 0 1
    outer loop
      vertex 18.333333969116211 0 2
      vertex 20 10 2
      vertex 9.1666669845581055 0 2
    endloop
  endfacet
endsolid OBJECT
